<svg xmlns="http://www.w3.org/2000/svg" 
height="60" viewBox="0 0 53 60" width="60">
    <path  transform="rotate(-10 29.99999809265138,30.00000190734862) "fill="#ffffcc" id="path1575" d="m39.32679,5.69618c-0.114,0.00135 -0.23094,0.00657 -0.34713,0.01506c-4.62702,0.74472 -7.17113,5.30689 -7.53979,9.32991c-0.53869,3.65054 1.1866,8.34257 5.48531,9.16057c0.62353,0.11068 1.27141,0.06011 1.88091,-0.09409c5.17638,-1.61845 7.49287,-7.33484 6.74464,-12.0698c-0.21751,-3.05812 -2.68987,-6.38367 -6.22395,-6.34163l0,0l0,-0.00001zm-19.61637,0.19572c-2.87705,0.06585 -5.11823,2.78667 -5.57411,5.34429c-0.96107,5.06721 1.51097,11.36323 7.17248,12.96555c0.53029,0.10754 1.07883,0.11861 1.61451,0.04139c3.82659,-0.59465 5.44763,-4.59506 5.28752,-7.82449c-0.11518,-4.26008 -2.48841,-9.18593 -7.23303,-10.38373c-0.4337,-0.10725 -0.8564,-0.15242 -1.2674,-0.14302l0.00001,0l0,0.00001zm32.15309,14.39194c-4.97715,0.27765 -8.38938,4.90816 -8.87581,9.23206c-0.65867,3.1185 1.12434,7.28949 4.94043,7.53845c5.32102,-0.06116 8.951,-5.36279 9.10183,-9.92458c0.33656,-3.01705 -1.56944,-6.67937 -5.16646,-6.84596l0,0.00001l0,0.00001zm-43.56368,1.02746c-2.11748,-0.017 -4.20001,1.16567 -4.89199,3.17271c-1.84605,5.36885 1.86108,12.16848 7.95955,13.29674c2.54519,0.40611 4.7816,-1.41641 5.41266,-3.60927c1.33741,-4.6903 -1.40958,-10.13642 -6.05847,-12.26552c-0.75739,-0.39633 -1.5932,-0.588 -2.42177,-0.59465l0,0l0.00001,0zm22.31263,9.62723c-4.15116,0.00826 -8.36742,1.97249 -11.0554,4.89642c-2.90322,3.40795 -5.28143,7.3738 -6.21184,11.67462c-1.13034,3.09596 1.43155,6.65888 4.98078,6.68036c4.26992,0.11061 7.93964,-2.62341 12.18555,-2.82646c3.60232,-0.51205 6.82787,1.23509 10.0665,2.37858c2.7575,1.09973 6.5679,0.67829 7.9757,-2.08879c1.10738,-2.82042 -0.52257,-5.82783 -1.87283,-8.33257c-2.754,-4.0655 -5.70442,-8.33838 -10.21989,-10.87677c-1.80991,-1.04606 -3.82126,-1.50946 -5.84858,-1.50544l0,0.00001l0,0.00003z"/>

</svg>


